# Blender v2.79 (sub 0) OBJ File: 'FLY.blend'
# www.blender.org
mtllib FLY.mtl
g Cylinder_Cylinder.001
v -0.807265 -2.279085 -0.417413
v -0.807265 -1.143490 -0.417413
v 0.000930 -2.279085 -1.044229
v 0.000930 -1.143490 -1.044229
v 0.927673 -2.279085 -0.655159
v 0.927673 -1.143490 -0.655159
v 1.046221 -2.279085 0.360727
v 1.046221 -1.143490 0.360727
v 0.238026 -2.279085 0.987542
v 0.238026 -1.143490 0.987542
v -0.688717 -2.279085 0.598472
v -0.688717 -1.143490 0.598472
v 0.030773 -1.143490 -0.788497
v -0.573973 -1.143490 -0.319472
v 0.724224 -1.143490 -0.497369
v 0.812929 -1.143490 0.262785
v 0.208183 -1.143490 0.731810
v -0.485267 -1.143490 0.440682
v 0.047661 -1.860414 -0.789999
v -0.557085 -1.860414 -0.320974
v 0.741112 -1.860414 -0.498871
v 0.829817 -1.860414 0.261283
v 0.225072 -1.860414 0.730308
v -0.468379 -1.860414 0.439180
vn -0.6129 0.0000 -0.7902
vn 0.3871 0.0000 -0.9220
vn 0.9933 0.0000 -0.1159
vn 0.6129 0.0000 0.7902
vn 0.0000 1.0000 0.0000
vn -0.3871 0.0000 0.9220
vn -0.9933 0.0000 0.1159
vn 0.0000 -1.0000 0.0000
vn 0.9930 0.0236 -0.1159
vn -0.6128 -0.0128 -0.7901
vn -0.3871 -0.0110 0.9220
vn 0.3871 0.0110 -0.9220
vn -0.9930 -0.0236 0.1159
vn 0.6128 0.0128 0.7901
usemtl None
s off
f 1//1 2//1 4//1 3//1
f 3//2 4//2 6//2 5//2
f 5//3 6//3 8//3 7//3
f 7//4 8//4 10//4 9//4
f 6//5 4//5 13//5 15//5
f 9//6 10//6 12//6 11//6
f 11//7 12//7 2//7 1//7
f 1//8 3//8 5//8 7//8 9//8 11//8
f 14//9 18//9 24//9 20//9
f 12//5 10//5 17//5 18//5
f 4//5 2//5 14//5 13//5
f 8//5 6//5 15//5 16//5
f 2//5 12//5 18//5 14//5
f 10//5 8//5 16//5 17//5
f 19//5 20//5 24//5 23//5 22//5 21//5
f 17//10 16//10 22//10 23//10
f 15//11 13//11 19//11 21//11
f 18//12 17//12 23//12 24//12
f 16//13 15//13 21//13 22//13
f 13//14 14//14 20//14 19//14
g Cube_Cube.001
v -0.411174 -1.470161 -0.580191
v -0.488078 2.900497 -0.760176
v -0.415002 -1.473090 -0.675779
v -0.436470 2.898786 -0.840695
v -0.270649 -1.468395 -0.585872
v -0.369730 2.904418 -0.684122
v -0.274478 -1.471324 -0.681461
v -0.318121 2.902706 -0.764641
vn -0.9650 -0.0212 -0.2613
vn 0.2628 -0.0254 -0.9645
vn 0.9650 0.0212 0.2613
vn -0.2628 0.0254 0.9645
vn 0.0138 -0.9995 0.0301
vn -0.0138 0.9995 -0.0301
usemtl None
s off
f 25//15 26//15 28//15 27//15
f 27//16 28//16 32//16 31//16
f 31//17 32//17 30//17 29//17
f 29//18 30//18 26//18 25//18
f 27//19 31//19 29//19 25//19
f 32//20 28//20 26//20 30//20
g Icosphere
v -0.589442 3.662897 -0.175234
v 2.228925 5.378294 1.540939
v -1.250838 5.832009 2.772397
v -3.506416 5.969919 -0.181338
v -1.420640 5.601408 -3.238289
v 2.123982 5.235776 -2.173835
v 1.053781 8.745557 2.595513
v -2.490842 9.111189 1.531059
v -2.595784 8.968671 -2.183715
v 0.883978 8.514956 -3.415174
v 3.139557 8.377046 -0.461438
v 0.222582 10.684068 -0.467543
v -1.049480 4.321513 1.582987
v 0.995858 4.054829 0.859160
v 0.607110 5.329802 2.591738
v 2.590768 4.979351 -0.315581
v 0.934175 3.971059 -1.324314
v -2.375278 4.402576 -0.153162
v -2.764046 5.677547 1.579405
v -1.149287 4.185970 -1.949979
v -2.863853 5.542004 -1.953573
v 0.445619 5.110487 -3.124737
v 3.187726 6.825741 0.690937
v 3.126042 6.741971 -1.492546
v -0.083622 7.309027 3.211611
v 1.961742 7.042338 2.487785
v -3.492902 7.604993 0.849769
v -2.167109 7.523942 2.585949
v -2.328601 7.304626 -3.130562
v -3.554585 7.521224 -1.333714
v 1.800250 6.823023 -3.228725
v -0.283237 7.037938 -3.854387
v 2.496994 8.804961 1.310796
v -0.812479 9.236478 2.481961
v -2.957627 9.367614 -0.327195
v -0.973969 9.017163 -3.234514
v 2.397187 8.669417 -2.222182
v 0.782427 10.160995 1.307202
v 2.008418 9.944389 -0.489615
v -1.301034 10.375906 0.681538
v -1.362717 10.292136 -1.501936
v 0.682621 10.025452 -2.225764
v -0.272766 2.180920 1.146150
v 0.010818 1.774927 0.062323
v 0.988051 2.016528 0.699959
v 2.228925 5.378294 1.540939
v 0.607110 5.329802 2.591738
v -1.250838 5.832009 2.772397
v 2.590768 4.979351 -0.315581
v 0.950027 1.964890 -0.646009
v 2.123982 5.235776 -2.173835
v -1.090032 2.230890 0.075929
v -2.764046 5.677547 1.579405
v -3.506416 5.969919 -0.181338
v -0.334290 2.097366 -1.031690
v -2.863853 5.542004 -1.953573
v -1.420640 5.601408 -3.238289
v 0.445619 5.110487 -3.124737
v 3.187726 6.825741 0.690937
v 3.126042 6.741971 -1.492546
v 3.139557 8.377046 -0.461438
v -0.083622 7.309027 3.211611
v 1.961742 7.042338 2.487785
v 1.053781 8.745557 2.595513
v -3.492902 7.604993 0.849769
v -2.167109 7.523942 2.585949
v -2.490842 9.111189 1.531059
v -2.328601 7.304626 -3.130562
v -3.554585 7.521224 -1.333714
v -2.595784 8.968671 -2.183715
v 1.800250 6.823023 -3.228725
v -0.283237 7.037938 -3.854387
v 0.883978 8.514956 -3.415174
v 2.496994 8.804961 1.310796
v -0.812479 9.236478 2.481961
v -2.957627 9.367614 -0.327195
v -0.973969 9.017163 -3.234514
v 2.397187 8.669417 -2.222182
v 0.782427 10.160995 1.307202
v 2.008418 9.944389 -0.489615
v 0.222582 10.684068 -0.467543
v -1.301034 10.375906 0.681538
v -1.362717 10.292136 -1.501936
v 0.682621 10.025452 -2.225764
v 0.010818 1.774927 0.062323
v 0.988051 2.016528 0.699959
v 0.950027 1.964890 -0.646009
v -0.185326 3.874937 -0.962848
vn -0.0022 0.9363 -0.3513
vn -0.6269 0.7276 -0.2785
vn 0.3690 0.8980 -0.2398
vn 0.3800 0.9129 0.1492
vn 0.0155 0.9604 0.2782
vn -0.8683 0.4225 -0.2600
vn -0.0133 0.2946 -0.9555
vn 0.9125 0.2128 -0.3494
vn 0.6296 0.2901 0.7207
vn -0.4710 0.4196 0.7760
vn -0.7990 0.1953 -0.5687
vn 0.2922 0.0530 -0.9549
vn 0.9995 0.0098 -0.0286
vn 0.3455 0.1253 0.9300
vn -0.7661 0.2400 0.5962
vn -0.4998 -0.6335 -0.5907
vn 0.3756 -0.7337 -0.5662
vn 0.6269 -0.7276 0.2785
vn -0.0931 -0.6236 0.7762
vn -0.7894 -0.5654 0.2390
vn -0.3690 -0.8980 0.2398
vn -0.5688 -0.7182 0.4008
vn -0.4643 -0.5853 0.6647
vn 0.0022 -0.9363 0.3513
vn 0.1114 -0.7883 0.6051
vn 0.4085 -0.6890 0.5987
vn 0.2207 -0.9748 0.0312
vn 0.5116 -0.8590 0.0185
vn 0.6118 -0.7481 -0.2569
vn -0.0155 -0.9604 -0.2782
vn 0.0788 -0.8326 -0.5483
vn -0.1353 -0.6810 -0.7197
vn -0.3800 -0.9129 -0.1492
vn -0.5890 -0.7455 -0.3120
vn -0.8004 -0.5804 -0.1501
vn -0.9125 -0.2128 0.3494
vn -0.7943 -0.0720 0.6032
vn -0.5874 -0.2327 0.7752
vn 0.0133 -0.2946 0.9555
vn 0.3062 -0.1856 0.9337
vn 0.5149 -0.3600 0.7780
vn 0.8683 -0.4225 0.2600
vn 0.9538 -0.3000 -0.0154
vn 0.8532 -0.4430 -0.2754
vn 0.4710 -0.4196 -0.7760
vn 0.2535 -0.2572 -0.9325
vn -0.0400 -0.3669 -0.9294
vn -0.6296 -0.2901 -0.7207
vn -0.8269 -0.1163 -0.5502
vn -0.9303 -0.2369 -0.2801
vn -0.2922 -0.0530 0.9549
vn -0.2535 0.2572 0.9325
vn 0.0400 0.3669 0.9294
vn 0.7990 -0.1953 0.5687
vn 0.8269 0.1163 0.5502
vn 0.9303 0.2369 0.2801
vn 0.7661 -0.2400 -0.5962
vn 0.7943 0.0720 -0.6032
vn 0.5874 0.2327 -0.7752
vn -0.3455 -0.1253 -0.9300
vn -0.3062 0.1856 -0.9337
vn -0.5149 0.3600 -0.7780
vn -0.9995 -0.0098 0.0286
vn -0.9538 0.3000 0.0154
vn -0.8532 0.4430 0.2754
vn -0.3756 0.7337 0.5662
vn -0.0788 0.8326 0.5483
vn 0.1353 0.6810 0.7197
vn 0.4998 0.6335 0.5907
vn 0.5890 0.7455 0.3120
vn 0.8004 0.5804 0.1501
vn 0.7894 0.5654 -0.2390
vn 0.5688 0.7182 -0.4008
vn 0.4643 0.5853 -0.6647
vn -0.6118 0.7481 0.2569
vn -0.5116 0.8590 -0.0185
vn -0.2207 0.9748 -0.0312
vn 0.0931 0.6236 -0.7762
vn -0.1114 0.7883 -0.6051
vn -0.4085 0.6890 -0.5987
vn 0.8842 -0.3905 0.2562
vn 0.4536 -0.5056 -0.7339
vn 0.1752 -0.5919 -0.7868
vn -0.0946 -0.5513 -0.8289
vn -0.5367 -0.5625 -0.6289
vn -0.6868 -0.6101 -0.3951
vn -0.8228 -0.5432 -0.1672
vn -0.8190 -0.5114 0.2604
vn -0.6786 -0.5446 0.4928
vn -0.5203 -0.4599 0.7195
vn 0.8567 -0.4361 -0.2754
vn 0.8786 -0.4775 -0.0065
vn 0.0000 0.0000 1.0000
vn -0.0227 -0.4119 0.9110
vn 0.2424 -0.4599 0.8543
vn 0.5107 -0.3813 0.7706
usemtl None
s off
f 33//21 45//21 46//21
f 34//22 48//22 46//22
f 33//23 50//23 45//23
f 33//24 52//24 50//24
f 33//25 49//25 52//25
f 34//26 55//26 48//26
f 35//27 57//27 47//27
f 36//28 59//28 51//28
f 37//29 61//29 53//29
f 38//30 63//30 54//30
f 34//31 58//31 55//31
f 35//32 60//32 57//32
f 36//33 62//33 59//33
f 37//34 64//34 61//34
f 38//35 56//35 63//35
f 39//36 70//36 65//36
f 40//37 72//37 66//37
f 41//38 73//38 67//38
f 42//39 74//39 68//39
f 43//40 71//40 69//40
f 71//41 44//41 74//41
f 71//42 74//42 69//42
f 69//43 74//43 42//43
f 74//44 44//44 73//44
f 74//45 73//45 68//45
f 68//46 73//46 41//46
f 73//47 44//47 72//47
f 73//48 72//48 67//48
f 67//49 72//49 40//49
f 72//50 44//50 70//50
f 72//51 70//51 66//51
f 66//52 70//52 39//52
f 70//53 44//53 71//53
f 70//54 71//54 65//54
f 65//55 71//55 43//55
f 56//56 43//56 69//56
f 56//57 69//57 63//57
f 63//58 69//58 42//58
f 64//59 42//59 68//59
f 64//60 68//60 61//60
f 61//61 68//61 41//61
f 62//62 41//62 67//62
f 62//63 67//63 59//63
f 59//64 67//64 40//64
f 60//65 40//65 66//65
f 60//66 66//66 57//66
f 57//67 66//67 39//67
f 58//68 39//68 65//68
f 58//69 65//69 55//69
f 55//70 65//70 43//70
f 63//71 42//71 64//71
f 63//72 64//72 54//72
f 54//73 64//73 37//73
f 61//74 41//74 62//74
f 61//75 62//75 53//75
f 53//76 62//76 36//76
f 59//77 40//77 60//77
f 59//78 60//78 51//78
f 51//79 60//79 35//79
f 57//80 39//80 58//80
f 57//81 58//81 47//81
f 47//82 58//82 34//82
f 55//83 43//83 56//83
f 55//84 56//84 48//84
f 48//85 56//85 38//85
f 49//86 38//86 54//86
f 49//87 54//87 52//87
f 52//88 54//88 37//88
f 52//89 37//89 53//89
f 52//90 53//90 50//90
f 50//91 53//91 36//91
f 50//92 36//92 51//92
f 50//93 51//93 45//93
f 45//94 51//94 35//94
f 48//95 38//95 49//95
f 48//96 49//96 46//96
f 46//97 49//97 33//97
f 45//98 35//98 47//98
f 45//99 47//99 46//99
f 46//100 47//100 34//100
f 76//44 77//44 75//44
f 78//101 77//101 81//101
f 76//41 75//41 84//41
f 76//53 84//53 87//53
f 76//50 87//50 82//50
f 78//62 81//62 91//62
f 80//59 79//59 94//59
f 86//56 85//56 97//56
f 89//68 88//68 100//68
f 83//65 90//65 103//65
f 78//74 91//74 95//74
f 80//71 94//71 98//71
f 86//83 97//83 101//83
f 89//80 100//80 104//80
f 83//77 103//77 92//77
f 96//89 106//89 111//89
f 99//86 107//86 114//86
f 102//22 108//22 115//22
f 105//98 109//98 116//98
f 93//92 110//92 112//92
f 112//23 116//23 113//23
f 112//93 110//93 116//93
f 110//94 105//94 116//94
f 116//21 115//21 113//21
f 116//99 109//99 115//99
f 109//100 102//100 115//100
f 115//97 114//97 113//97
f 115//96 108//96 114//96
f 108//95 99//95 114//95
f 114//25 111//25 113//25
f 114//87 107//87 111//87
f 107//88 96//88 111//88
f 111//24 112//24 113//24
f 111//90 106//90 112//90
f 106//91 93//91 112//91
f 92//28 110//28 93//28
f 92//78 103//78 110//78
f 103//79 105//79 110//79
f 104//27 109//27 105//27
f 104//81 100//81 109//81
f 100//82 102//82 109//82
f 101//26 108//26 102//26
f 101//84 97//84 108//84
f 97//85 99//85 108//85
f 98//30 107//30 99//30
f 98//72 94//72 107//72
f 94//73 96//73 107//73
f 95//29 106//29 96//29
f 95//75 91//75 106//75
f 91//76 93//76 106//76
f 103//32 104//32 105//32
f 103//66 90//66 104//66
f 90//67 89//67 104//67
f 100//31 101//31 102//31
f 100//69 88//69 101//69
f 88//70 86//70 101//70
f 97//35 98//35 99//35
f 97//57 85//57 98//57
f 85//58 80//58 98//58
f 94//34 95//34 96//34
f 94//60 79//60 95//60
f 79//61 78//61 95//61
f 91//33 92//33 93//33
f 91//63 81//63 92//63
f 81//64 83//64 92//64
f 82//102 90//102 83//102
f 82//103 87//103 90//103
f 87//104 89//104 90//104
f 87//105 88//105 89//105
f 87//106 84//106 88//106
f 84//107 86//107 88//107
f 84//108 85//108 86//108
f 84//109 75//109 85//109
f 75//110 80//110 85//110
f 81//111 82//111 83//111
f 81//112 77//112 82//112
f 82//113 77//113 118//113 119//113
f 75//114 79//114 80//114
f 75//115 77//115 79//115
f 77//116 78//116 79//116
f 118//47 117//47 119//47
f 76//113 82//113 119//113 117//113
f 77//113 76//113 117//113 118//113
g Cube.001_Cube.002
v 0.790478 -1.471203 -0.054530
v 0.883830 2.327724 0.039409
v 0.798760 -1.468017 -0.145767
v 0.942959 2.328737 -0.030636
v 0.924841 -1.475303 -0.042476
v 0.986906 2.321675 0.126318
v 0.933123 -1.472117 -0.133713
v 1.046034 2.322688 0.056273
vn -0.9223 0.0394 -0.3845
vn 0.3855 0.0240 -0.9224
vn 0.9223 -0.0394 0.3845
vn -0.3855 -0.0240 0.9224
vn -0.0271 -0.9989 -0.0373
vn 0.0271 0.9989 0.0373
usemtl None
s off
f 121//117 122//117 124//117 123//117
f 123//118 124//118 128//118 127//118
f 127//119 128//119 126//119 125//119
f 125//120 126//120 122//120 121//120
f 123//121 127//121 125//121 121//121
f 128//122 124//122 122//122 126//122
g Cube.002_Cube.003
v -0.650116 -1.469910 -0.055369
v -1.083089 2.305267 0.044426
v -0.644868 -1.465750 -0.146792
v -1.026623 2.314375 -0.027212
v -0.516207 -1.455276 -0.047016
v -0.977824 2.313743 0.128460
v -0.510959 -1.451117 -0.138439
v -0.921357 2.322851 0.056822
vn -0.9290 -0.0898 -0.3589
vn 0.3529 0.0759 -0.9326
vn 0.9290 0.0898 0.3589
vn -0.3529 -0.0759 0.9326
vn 0.1109 -0.9931 -0.0388
vn -0.1109 0.9931 0.0388
usemtl None
s off
f 129//123 130//123 132//123 131//123
f 131//124 132//124 136//124 135//124
f 135//125 136//125 134//125 133//125
f 133//126 134//126 130//126 129//126
f 131//127 135//127 133//127 129//127
f 136//128 132//128 130//128 134//128
g Cube.003_Cube.004
v -0.305282 -1.428026 0.634270
v -0.460192 2.361624 0.887126
v -0.300237 -1.420597 0.543043
v -0.403597 2.369457 0.815438
v -0.170618 -1.423545 0.642082
v -0.354136 2.359022 0.970552
v -0.165573 -1.416115 0.550856
v -0.297542 2.366855 0.898864
vn -0.9350 -0.0073 -0.3545
vn 0.3525 0.0873 -0.9317
vn 0.9350 0.0073 0.3545
vn -0.3525 -0.0873 0.9317
vn 0.0377 -0.9962 -0.0790
vn -0.0377 0.9962 0.0790
usemtl None
s off
f 137//129 138//129 140//129 139//129
f 139//130 140//130 144//130 143//130
f 143//131 144//131 142//131 141//131
f 141//132 142//132 138//132 137//132
f 139//133 143//133 141//133 137//133
f 144//134 140//134 138//134 142//134
g Cube.004_Cube.005
v 0.486789 -1.283474 0.587490
v 0.493878 2.098208 0.878936
v 0.494919 -1.274398 0.496729
v 0.552907 2.104916 0.809204
v 0.621217 -1.285340 0.599346
v 0.597135 2.089016 0.965280
v 0.629347 -1.276264 0.508584
v 0.656164 2.095724 0.895548
vn -0.9231 0.0430 -0.3821
vn 0.3839 0.0904 -0.9190
vn 0.9231 -0.0430 0.3821
vn -0.3839 -0.0904 0.9190
vn -0.0050 -0.9950 -0.0999
vn 0.0050 0.9950 0.1000
usemtl None
s off
f 145//135 146//135 148//135 147//135
f 147//136 148//136 152//136 151//136
f 151//137 152//137 150//137 149//137
f 149//138 150//138 146//138 145//138
f 147//139 151//139 149//139 145//139
f 152//140 148//140 146//140 150//140
g Cube.005_Cube.006
v 0.485420 -1.502574 -0.595490
v 0.521944 2.297280 -0.691203
v 0.487773 -1.503771 -0.687120
v 0.576428 2.295634 -0.764907
v 0.620329 -1.504283 -0.592003
v 0.630472 2.296891 -0.610980
v 0.622682 -1.505480 -0.683633
v 0.684957 2.295244 -0.684684
vn -0.9456 0.0082 -0.3252
vn 0.3250 -0.0163 -0.9456
vn 0.9456 -0.0082 0.3252
vn -0.3250 0.0163 0.9456
vn -0.0130 -0.9998 0.0127
vn 0.0130 0.9998 -0.0127
usemtl None
s off
f 153//141 154//141 156//141 155//141
f 155//142 156//142 160//142 159//142
f 159//143 160//143 158//143 157//143
f 157//144 158//144 154//144 153//144
f 155//145 159//145 157//145 153//145
f 160//146 156//146 154//146 158//146
