# Blender v2.79 (sub 0) OBJ File: 'torii4.blend'
# www.blender.org
g Cube.007_Cube.012
v -0.500000 1.427712 -0.130690
v -0.500000 4.854040 -0.612229
v -0.500000 1.385960 -0.427771
v -0.500000 4.812288 -0.909310
v 0.500000 1.427712 -0.130690
v 0.500000 4.854040 -0.612229
v 0.500000 1.385960 -0.427771
v 0.500000 4.812288 -0.909310
vn -1.0000 0.0000 0.0000
vn 0.0000 -0.1392 -0.9903
vn 1.0000 0.0000 0.0000
vn 0.0000 0.1392 0.9903
vn 0.0000 -0.9903 0.1392
vn 0.0000 0.9903 -0.1392
s off
f 1//1 2//1 4//1 3//1
f 3//2 4//2 8//2 7//2
f 7//3 8//3 6//3 5//3
f 5//4 6//4 2//4 1//4
f 3//5 7//5 5//5 1//5
f 8//6 4//6 2//6 6//6
g Cylinder
v 5.210785 -9.198421 -0.701215
v 4.909214 5.198421 -0.600000
v 5.347556 -9.195556 -0.687741
v 5.026243 5.200872 -0.588471
v 5.479070 -9.192801 -0.647838
v 5.138774 5.203229 -0.554328
v 5.600274 -9.190262 -0.583039
v 5.242484 5.205401 -0.498882
v 5.706510 -9.188036 -0.495834
v 5.333385 5.207305 -0.424264
v 5.793696 -9.186211 -0.389574
v 5.407987 5.208869 -0.333342
v 5.858481 -9.184853 -0.268343
v 5.463421 5.210030 -0.229610
v 5.898376 -9.184017 -0.136800
v 5.497557 5.210744 -0.117054
v 5.911846 -9.183735 -0.000000
v 5.509083 5.210986 -0.000000
v 5.898376 -9.184017 0.136800
v 5.497557 5.210744 0.117054
v 5.858481 -9.184853 0.268343
v 5.463421 5.210030 0.229610
v 5.793696 -9.186211 0.389574
v 5.407987 5.208869 0.333342
v 5.706510 -9.188036 0.495834
v 5.333385 5.207305 0.424264
v 5.600274 -9.190262 0.583039
v 5.242484 5.205401 0.498882
v 5.479070 -9.192801 0.647838
v 5.138774 5.203229 0.554328
v 5.347555 -9.195556 0.687741
v 5.026243 5.200872 0.588471
v 5.210785 -9.198421 0.701215
v 4.909214 5.198421 0.600000
v 5.074015 -9.201285 0.687741
v 4.792186 5.195969 0.588471
v 4.942501 -9.204041 0.647838
v 4.679655 5.193612 0.554328
v 4.821296 -9.206579 0.583039
v 4.575945 5.191440 0.498882
v 4.715060 -9.208805 0.495833
v 4.485044 5.189536 0.424264
v 4.627874 -9.210630 0.389574
v 4.410442 5.187973 0.333342
v 4.563089 -9.211988 0.268343
v 4.355008 5.186811 0.229610
v 4.523195 -9.212824 0.136800
v 4.320872 5.186097 0.117054
v 4.509725 -9.213106 -0.000001
v 4.309346 5.185855 -0.000001
v 4.523195 -9.212824 -0.136801
v 4.320872 5.186097 -0.117055
v 4.563090 -9.211988 -0.268344
v 4.355009 5.186811 -0.229611
v 4.627875 -9.210630 -0.389575
v 4.410442 5.187973 -0.333343
v 4.715061 -9.208805 -0.495834
v 4.485044 5.189536 -0.424265
v 4.821298 -9.206579 -0.583039
v 4.575946 5.191440 -0.498882
v 4.942502 -9.204041 -0.647838
v 4.679656 5.193612 -0.554328
v 5.074016 -9.201285 -0.687741
v 4.792187 5.195969 -0.588471
vn 0.0978 0.0090 -0.9952
vn 0.2901 0.0131 -0.9569
vn 0.4711 0.0169 -0.8819
vn 0.6341 0.0203 -0.7730
vn 0.7727 0.0232 -0.6344
vn 0.8816 0.0255 -0.4714
vn 0.9566 0.0270 -0.2903
vn 0.9948 0.0278 -0.0980
vn 0.9948 0.0278 0.0980
vn 0.9566 0.0270 0.2903
vn 0.8816 0.0255 0.4714
vn 0.7727 0.0232 0.6344
vn 0.6341 0.0203 0.7730
vn 0.4711 0.0169 0.8819
vn 0.2901 0.0131 0.9569
vn 0.0978 0.0090 0.9952
vn -0.0981 0.0049 0.9952
vn -0.2904 0.0009 0.9569
vn -0.4714 -0.0029 0.8819
vn -0.6344 -0.0063 0.7730
vn -0.7730 -0.0092 0.6344
vn -0.8819 -0.0115 0.4714
vn -0.9569 -0.0130 0.2903
vn -0.9951 -0.0138 0.0980
vn -0.9951 -0.0138 -0.0980
vn -0.9569 -0.0130 -0.2903
vn -0.8819 -0.0115 -0.4714
vn -0.7730 -0.0092 -0.6344
vn -0.6344 -0.0063 -0.7730
vn -0.4714 -0.0029 -0.8819
vn -0.0209 0.9998 0.0000
vn -0.2904 0.0009 -0.9569
vn -0.0981 0.0049 -0.9952
vn 0.0209 -0.9998 0.0000
s off
f 9//7 10//7 12//7 11//7
f 11//8 12//8 14//8 13//8
f 13//9 14//9 16//9 15//9
f 15//10 16//10 18//10 17//10
f 17//11 18//11 20//11 19//11
f 19//12 20//12 22//12 21//12
f 21//13 22//13 24//13 23//13
f 23//14 24//14 26//14 25//14
f 25//15 26//15 28//15 27//15
f 27//16 28//16 30//16 29//16
f 29//17 30//17 32//17 31//17
f 31//18 32//18 34//18 33//18
f 33//19 34//19 36//19 35//19
f 35//20 36//20 38//20 37//20
f 37//21 38//21 40//21 39//21
f 39//22 40//22 42//22 41//22
f 41//23 42//23 44//23 43//23
f 43//24 44//24 46//24 45//24
f 45//25 46//25 48//25 47//25
f 47//26 48//26 50//26 49//26
f 49//27 50//27 52//27 51//27
f 51//28 52//28 54//28 53//28
f 53//29 54//29 56//29 55//29
f 55//30 56//30 58//30 57//30
f 57//31 58//31 60//31 59//31
f 59//32 60//32 62//32 61//32
f 61//33 62//33 64//33 63//33
f 63//34 64//34 66//34 65//34
f 65//35 66//35 68//35 67//35
f 67//36 68//36 70//36 69//36
f 12//37 10//37 72//37 70//37 68//37 66//37 64//37 62//37 60//37 58//37 56//37 54//37 52//37 50//37 48//37 46//37 44//37 42//37 40//37 38//37 36//37 34//37 32//37 30//37 28//37 26//37 24//37 22//37 20//37 18//37 16//37 14//37
f 69//38 70//38 72//38 71//38
f 71//39 72//39 10//39 9//39
f 9//40 11//40 13//40 15//40 17//40 19//40 21//40 23//40 25//40 27//40 29//40 31//40 33//40 35//40 37//40 39//40 41//40 43//40 45//40 47//40 49//40 51//40 53//40 55//40 57//40 59//40 61//40 63//40 65//40 67//40 69//40 71//40
g Cube.001_Cube.002
v -7.881360 1.711333 0.244333
v -7.998640 2.688667 0.244333
v -7.881360 1.711333 -0.244333
v -7.998640 2.688667 -0.244333
v 7.879265 1.693871 0.253065
v 8.000735 2.706129 0.253065
v 7.879265 1.693871 -0.253065
v 8.000735 2.706129 -0.253065
vn -0.9929 -0.1191 0.0000
vn -0.0005 0.0000 -1.0000
vn 0.9929 -0.1191 0.0000
vn -0.0005 0.0000 1.0000
vn -0.0011 -1.0000 0.0000
vn -0.0011 1.0000 0.0000
s off
f 73//41 74//41 76//41 75//41
f 75//42 76//42 80//42 79//42
f 79//43 80//43 78//43 77//43
f 77//44 78//44 74//44 73//44
f 75//45 79//45 77//45 73//45
f 80//46 76//46 74//46 78//46
g Cylinder.002
v -0.442861 5.661078 -1.036468
v 8.635007 5.154298 -0.875949
v -0.442861 5.485497 -1.019174
v 8.603287 5.023513 -0.761857
v -0.442861 5.316663 -0.967959
v 8.575845 4.917230 -0.623731
v -0.442861 5.161065 -0.884790
v 8.553738 4.839532 -0.466880
v -0.442861 5.024682 -0.772864
v 8.537813 4.793406 -0.297332
v -0.442861 4.912755 -0.636481
v 8.528685 4.780623 -0.121602
v -0.442861 4.829587 -0.480883
v 8.526702 4.801677 0.053557
v -0.442861 4.778372 -0.312049
v 8.531942 4.855757 0.221414
v -0.442861 4.761078 -0.136468
v 8.544203 4.940784 0.375517
v -0.442861 4.778372 0.039113
v 8.563013 5.053493 0.509945
v -0.442861 4.829587 0.207947
v 8.587650 5.189550 0.619532
v -0.442861 4.912755 0.363545
v 8.617168 5.343728 0.700066
v -0.442861 5.024682 0.499928
v 8.650432 5.510101 0.748452
v -0.442861 5.161065 0.611855
v 8.686162 5.682277 0.762832
v -0.442861 5.316663 0.695024
v 8.722987 5.853638 0.742652
v -0.442861 5.485497 0.746239
v 8.759492 6.017599 0.688688
v -0.442861 5.661078 0.763532
v 8.794272 6.167859 0.603013
v -0.442861 5.836660 0.746239
v 8.825993 6.298644 0.488921
v -0.442861 6.005494 0.695024
v 8.853435 6.404927 0.350795
v -0.442861 6.161092 0.611855
v 8.875542 6.482625 0.193944
v -0.442861 6.297475 0.499928
v 8.891466 6.528750 0.024396
v -0.442861 6.409401 0.363545
v 8.900595 6.541533 -0.151335
v -0.442861 6.492570 0.207947
v 8.902577 6.520479 -0.326494
v -0.442861 6.543785 0.039113
v 8.897337 6.466399 -0.494350
v -0.442861 6.561078 -0.136469
v 8.885077 6.381371 -0.648453
v -0.442861 6.543785 -0.312050
v 8.866266 6.268663 -0.782881
v -0.442861 6.492569 -0.480884
v 8.841629 6.132605 -0.892468
v -0.442861 6.409400 -0.636482
v 8.812111 5.978427 -0.973002
v -0.442861 6.297473 -0.772865
v 8.778848 5.812054 -1.021388
v -0.442861 6.161090 -0.884791
v 8.743117 5.639878 -1.035767
v -0.442861 6.005492 -0.967960
v 8.706291 5.468517 -1.015587
v -0.442861 5.836658 -1.019175
v 8.669787 5.304556 -0.961623
v -5.720884 5.848840 -1.081468
v -5.743475 5.665727 -1.064719
v -5.765048 5.489352 -1.012297
v -5.784770 5.326493 -0.926218
v -5.801888 5.183410 -0.809790
v -5.815740 5.065601 -0.667485
v -5.825796 4.977593 -0.504774
v -5.831669 4.922768 -0.327910
v -5.833133 4.903233 -0.143688
v -5.830133 4.919739 0.040811
v -5.822782 4.971651 0.218498
v -5.811365 5.056975 0.382543
v -5.796319 5.172431 0.526643
v -5.778222 5.313584 0.645260
v -5.757771 5.475007 0.733836
v -5.735751 5.650498 0.788966
v -5.713007 5.833313 0.808533
v -5.690417 6.016427 0.791784
v -5.668845 6.192802 0.739362
v -5.649121 6.355660 0.653283
v -5.632004 6.498743 0.536854
v -5.618151 6.616552 0.394549
v -5.608096 6.704560 0.231838
v -5.602222 6.759385 0.054973
v -5.600757 6.778920 -0.129248
v -5.603758 6.762414 -0.313748
v -5.611109 6.710501 -0.491434
v -5.622528 6.625177 -0.655479
v -5.637573 6.509721 -0.799579
v -5.655670 6.368568 -0.918196
v -5.676120 6.207145 -1.006772
v -5.698141 6.031653 -1.061902
v -8.871103 6.317270 -1.343769
v -8.843550 6.081725 -1.336802
v -8.816088 5.852124 -1.283707
v -8.789764 5.637293 -1.186524
v -8.765594 5.445487 -1.048988
v -8.744511 5.284079 -0.876384
v -8.727325 5.159268 -0.675344
v -8.714684 5.075853 -0.453598
v -8.707087 5.037039 -0.219663
v -8.704823 5.044319 0.017469
v -8.707972 5.097410 0.248685
v -8.716419 5.194274 0.465096
v -8.729845 5.331189 0.658392
v -8.747725 5.502892 0.821144
v -8.769377 5.702786 0.947095
v -8.793957 5.923188 1.031406
v -8.820539 6.155629 1.070833
v -8.848091 6.391174 1.063866
v -8.875555 6.620776 1.010771
v -8.901871 6.835606 0.913587
v -8.926044 7.027412 0.776051
v -8.947124 7.188821 0.603449
v -8.964317 7.313631 0.402413
v -8.976955 7.397046 0.180666
v -8.984552 7.435860 -0.053269
v -8.986818 7.428580 -0.290401
v -8.983665 7.375488 -0.521618
v -8.975218 7.278624 -0.738033
v -8.961790 7.141708 -0.931329
v -8.943914 6.970004 -1.094080
v -8.922262 6.770111 -1.220031
v -8.897678 6.549709 -1.304340
vn 0.0001 -0.3941 -0.9190
vn 0.0004 -0.5670 -0.8237
vn 0.0008 -0.7171 -0.6970
vn 0.0012 -0.8391 -0.5440
vn 0.0017 -0.9286 -0.3710
vn 0.0020 -0.9828 -0.1846
vn 0.0023 -1.0000 0.0085
vn 0.0023 -0.9796 0.2012
vn 0.0022 -0.9222 0.3866
vn 0.0019 -0.8298 0.5580
vn 0.0015 -0.7054 0.7088
vn 0.0011 -0.5532 0.8330
vn 0.0006 -0.3789 0.9254
vn 0.0003 -0.1892 0.9819
vn 0.0001 0.0083 1.0000
vn 0.0000 0.2054 0.9787
vn 0.0001 0.3941 0.9191
vn 0.0004 0.5669 0.8238
vn 0.0008 0.7170 0.6970
vn 0.0012 0.8390 0.5441
vn 0.0016 0.9286 0.3711
vn 0.0019 0.9828 0.1846
vn 0.0022 1.0000 -0.0085
vn 0.0022 0.9795 -0.2013
vn 0.0021 0.9221 -0.3868
vn 0.0018 0.8297 -0.5582
vn 0.0015 0.7052 -0.7090
vn 0.0010 0.5530 -0.8332
vn 0.0006 0.3788 -0.9255
vn 0.0003 0.1891 -0.9819
vn 0.9779 -0.2059 0.0358
vn 0.0001 -0.0083 -1.0000
vn 0.0000 -0.2054 -0.9787
vn 0.0117 0.0937 0.9955
vn 0.1671 0.7396 0.6520
vn 0.0408 0.9574 -0.2858
vn -0.0135 -0.6322 -0.7747
vn -0.0136 -0.6384 0.7696
vn 0.0382 0.8796 0.4742
vn 0.0185 0.2940 -0.9556
vn -0.0262 -0.9953 0.0936
vn 0.0183 0.2864 0.9579
vn 0.0384 0.8834 -0.4670
vn -0.0184 -0.7710 -0.6365
vn -0.0079 -0.4759 0.8794
vn 0.0407 0.9550 0.2936
vn 0.0052 -0.0948 -0.9955
vn 0.0120 0.1015 -0.9948
vn -0.0249 -0.9580 0.2856
vn 0.0244 0.4680 0.8834
vn 0.0348 0.7754 -0.6305
vn -0.0222 -0.8802 -0.4741
vn -0.0016 -0.2950 0.9555
vn 0.0420 0.9939 0.1019
vn -0.0014 -0.2875 -0.9578
vn -0.0223 -0.8841 0.4668
vn 0.0299 0.6314 0.7749
vn 0.0302 0.6375 -0.7698
vn -0.0249 -0.9556 -0.2936
vn 0.0050 -0.1026 0.9947
vn 0.0420 0.9947 -0.0937
vn -0.0078 -0.4689 -0.8832
vn -0.0184 -0.7762 0.6302
vn 0.0345 0.7703 0.6367
vn 0.0247 0.4750 -0.8797
vn -0.0262 -0.9944 -0.1019
vn -0.9932 -0.1158 0.0130
vn -0.0445 -0.9895 -0.1374
vn 0.1784 0.8508 0.4943
vn -0.0458 -0.9973 0.0568
vn 0.1862 0.9293 0.3191
vn -0.0418 -0.9676 0.2489
vn 0.1903 0.9727 0.1329
vn -0.0325 -0.9013 0.4319
vn 0.1908 0.9799 -0.0577
vn -0.0186 -0.8006 0.5989
vn 0.1876 0.9509 -0.2461
vn -0.0007 -0.6687 0.7435
vn 0.1809 0.8865 -0.4259
vn 0.0203 -0.5104 0.8597
vn 0.0773 -0.0555 -0.9955
vn 0.1708 0.7886 -0.5907
vn 0.0434 -0.3317 0.9424
vn 0.0537 -0.2505 -0.9666
vn 0.1573 0.6603 -0.7343
vn 0.0674 -0.1397 0.9879
vn 0.0305 -0.4359 -0.8995
vn 0.1408 0.5058 -0.8511
vn 0.0912 0.0574 0.9942
vn 0.0087 -0.6041 -0.7969
vn 0.1216 0.3304 -0.9360
vn 0.1138 0.2515 0.9612
vn -0.0106 -0.7483 -0.6633
vn 0.1002 0.1409 -0.9849
vn 0.1344 0.4345 0.8906
vn -0.0264 -0.8631 -0.5044
vn 0.1523 0.5992 0.7860
vn -0.0379 -0.9443 -0.3269
s off
f 81//47 82//47 84//47 83//47
f 83//48 84//48 86//48 85//48
f 85//49 86//49 88//49 87//49
f 87//50 88//50 90//50 89//50
f 89//51 90//51 92//51 91//51
f 91//52 92//52 94//52 93//52
f 93//53 94//53 96//53 95//53
f 95//54 96//54 98//54 97//54
f 97//55 98//55 100//55 99//55
f 99//56 100//56 102//56 101//56
f 101//57 102//57 104//57 103//57
f 103//58 104//58 106//58 105//58
f 105//59 106//59 108//59 107//59
f 107//60 108//60 110//60 109//60
f 109//61 110//61 112//61 111//61
f 111//62 112//62 114//62 113//62
f 113//63 114//63 116//63 115//63
f 115//64 116//64 118//64 117//64
f 117//65 118//65 120//65 119//65
f 119//66 120//66 122//66 121//66
f 121//67 122//67 124//67 123//67
f 123//68 124//68 126//68 125//68
f 125//69 126//69 128//69 127//69
f 127//70 128//70 130//70 129//70
f 129//71 130//71 132//71 131//71
f 131//72 132//72 134//72 133//72
f 133//73 134//73 136//73 135//73
f 135//74 136//74 138//74 137//74
f 137//75 138//75 140//75 139//75
f 139//76 140//76 142//76 141//76
f 84//77 82//77 144//77 142//77 140//77 138//77 136//77 134//77 132//77 130//77 128//77 126//77 124//77 122//77 120//77 118//77 116//77 114//77 112//77 110//77 108//77 106//77 104//77 102//77 100//77 98//77 96//77 94//77 92//77 90//77 88//77 86//77
f 141//78 142//78 144//78 143//78
f 143//79 144//79 82//79 81//79
f 113//80 115//80 162//80 161//80
f 165//81 166//81 198//81 197//81
f 131//82 133//82 171//82 170//82
f 87//83 89//83 149//83 148//83
f 105//84 107//84 158//84 157//84
f 123//85 125//85 167//85 166//85
f 141//86 143//86 176//86 175//86
f 97//87 99//87 154//87 153//87
f 115//88 117//88 163//88 162//88
f 133//89 135//89 172//89 171//89
f 89//90 91//90 150//90 149//90
f 107//91 109//91 159//91 158//91
f 125//92 127//92 168//92 167//92
f 81//93 83//93 146//93 145//93
f 143//94 81//94 145//94 176//94
f 99//95 101//95 155//95 154//95
f 117//96 119//96 164//96 163//96
f 135//97 137//97 173//97 172//97
f 91//98 93//98 151//98 150//98
f 109//99 111//99 160//99 159//99
f 127//100 129//100 169//100 168//100
f 83//101 85//101 147//101 146//101
f 101//102 103//102 156//102 155//102
f 119//103 121//103 165//103 164//103
f 137//104 139//104 174//104 173//104
f 93//105 95//105 152//105 151//105
f 111//106 113//106 161//106 160//106
f 129//107 131//107 170//107 169//107
f 85//108 87//108 148//108 147//108
f 103//109 105//109 157//109 156//109
f 121//110 123//110 166//110 165//110
f 139//111 141//111 175//111 174//111
f 95//112 97//112 153//112 152//112
f 177//113 178//113 179//113 180//113 181//113 182//113 183//113 184//113 185//113 186//113 187//113 188//113 189//113 190//113 191//113 192//113 193//113 194//113 195//113 196//113 197//113 198//113 199//113 200//113 201//113 202//113 203//113 204//113 205//113 206//113 207//113 208//113
f 152//114 153//114 185//114 184//114
f 166//115 167//115 199//115 198//115
f 153//116 154//116 186//116 185//116
f 167//117 168//117 200//117 199//117
f 154//118 155//118 187//118 186//118
f 168//119 169//119 201//119 200//119
f 155//120 156//120 188//120 187//120
f 169//121 170//121 202//121 201//121
f 156//122 157//122 189//122 188//122
f 170//123 171//123 203//123 202//123
f 157//124 158//124 190//124 189//124
f 171//125 172//125 204//125 203//125
f 158//126 159//126 191//126 190//126
f 145//127 146//127 178//127 177//127
f 172//128 173//128 205//128 204//128
f 159//129 160//129 192//129 191//129
f 146//130 147//130 179//130 178//130
f 173//131 174//131 206//131 205//131
f 160//132 161//132 193//132 192//132
f 147//133 148//133 180//133 179//133
f 174//134 175//134 207//134 206//134
f 161//135 162//135 194//135 193//135
f 148//136 149//136 181//136 180//136
f 175//137 176//137 208//137 207//137
f 162//138 163//138 195//138 194//138
f 149//139 150//139 182//139 181//139
f 176//140 145//140 177//140 208//140
f 163//141 164//141 196//141 195//141
f 150//142 151//142 183//142 182//142
f 164//143 165//143 197//143 196//143
f 151//144 152//144 184//144 183//144
g Cube.002_Cube.003
v 5.468000 2.620000 0.150000
v 5.468000 3.060000 0.150000
v 5.468000 2.620000 -0.150000
v 5.468000 3.060000 -0.150000
v 6.040000 2.664000 0.150000
v 6.234231 3.090479 0.098927
v 6.040000 2.664000 -0.150000
v 6.234231 3.090479 -0.201073
vn -1.0000 0.0000 0.0000
vn -0.0353 -0.0509 -0.9981
vn 0.9101 -0.4145 0.0000
vn 0.0353 0.0509 0.9981
vn 0.0767 -0.9971 0.0000
vn -0.0397 0.9992 0.0000
s off
f 209//145 210//145 212//145 211//145
f 211//146 212//146 216//146 215//146
f 215//147 216//147 214//147 213//147
f 213//148 214//148 210//148 209//148
f 211//149 215//149 213//149 209//149
f 216//150 212//150 210//150 214//150
g Cube.006_Cube.005
v 4.504970 2.590000 0.150000
v 4.504970 3.030000 0.150000
v 4.504970 2.590000 -0.150000
v 4.504970 3.030000 -0.150000
v 3.932970 2.634000 0.150000
v 3.793932 3.075020 0.098692
v 3.932970 2.634000 -0.150000
v 3.793932 3.075020 -0.201308
vn 1.0000 0.0000 0.0000
vn 0.0363 -0.0524 -0.9980
vn -0.9537 -0.3007 0.0000
vn -0.0363 0.0524 0.9980
vn -0.0767 -0.9971 0.0000
vn 0.0632 0.9980 0.0000
s off
f 217//151 219//151 220//151 218//151
f 219//152 223//152 224//152 220//152
f 223//153 221//153 222//153 224//153
f 221//154 217//154 218//154 222//154
f 219//155 217//155 221//155 223//155
f 224//156 222//156 218//156 220//156
g Cube.008_Cube.006
v -4.504966 2.689993 0.150000
v -4.504966 3.129993 0.150000
v -4.504966 2.689993 -0.150000
v -4.504966 3.129993 -0.150000
v -3.932966 2.733993 0.150000
v -3.763045 3.192267 0.103223
v -3.932966 2.733993 -0.150000
v -3.763045 3.192267 -0.196777
vn -1.0000 0.0000 0.0000
vn -0.0318 -0.0460 -0.9984
vn 0.9376 -0.3477 0.0000
vn 0.0318 0.0460 0.9984
vn 0.0767 -0.9971 0.0000
vn -0.0836 0.9965 0.0000
s off
f 225//157 226//157 228//157 227//157
f 227//158 228//158 232//158 231//158
f 231//159 232//159 230//159 229//159
f 229//160 230//160 226//160 225//160
f 227//161 231//161 229//161 225//161
f 232//162 228//162 226//162 230//162
g Cube.009_Cube.008
v -5.468000 2.730000 0.150000
v -5.468000 3.170000 0.150000
v -5.468000 2.730000 -0.150000
v -5.468000 3.170000 -0.150000
v -6.040000 2.774000 0.150000
v -6.231948 3.207799 0.100659
v -6.040000 2.774000 -0.150000
v -6.231948 3.207799 -0.199341
vn 1.0000 0.0000 0.0000
vn 0.0339 -0.0489 -0.9982
vn -0.9145 -0.4046 0.0000
vn -0.0339 0.0489 0.9982
vn -0.0767 -0.9971 0.0000
vn 0.0494 0.9988 0.0000
s off
f 233//163 235//163 236//163 234//163
f 235//164 239//164 240//164 236//164
f 239//165 237//165 238//165 240//165
f 237//166 233//166 234//166 238//166
f 235//167 233//167 237//167 239//167
f 240//168 238//168 234//168 236//168
g Cylinder.006
v -5.303349 -9.198147 -0.820520
v -4.976651 5.198147 -0.600000
v -5.143314 -9.201778 -0.804754
v -4.859627 5.195491 -0.588471
v -4.989430 -9.205271 -0.758062
v -4.747100 5.192937 -0.554328
v -4.847609 -9.208488 -0.682238
v -4.643394 5.190584 -0.498882
v -4.723302 -9.211309 -0.580196
v -4.552496 5.188521 -0.424264
v -4.621286 -9.213625 -0.455857
v -4.477898 5.186829 -0.333342
v -4.545482 -9.215345 -0.314000
v -4.422466 5.185571 -0.229610
v -4.498801 -9.216404 -0.160076
v -4.388331 5.184796 -0.117054
v -4.483039 -9.216763 0.000000
v -4.376805 5.184535 -0.000000
v -4.498801 -9.216404 0.160076
v -4.388331 5.184796 0.117054
v -4.545482 -9.215345 0.314000
v -4.422466 5.185571 0.229610
v -4.621286 -9.213625 0.455857
v -4.477898 5.186829 0.333342
v -4.723302 -9.211309 0.580196
v -4.552496 5.188521 0.424264
v -4.847610 -9.208488 0.682238
v -4.643395 5.190584 0.498882
v -4.989430 -9.205271 0.758062
v -4.747100 5.192937 0.554328
v -5.143314 -9.201778 0.804755
v -4.859627 5.195491 0.588471
v -5.303349 -9.198147 0.820521
v -4.976651 5.198147 0.600000
v -5.463384 -9.194515 0.804754
v -5.093676 5.200802 0.588471
v -5.617268 -9.191023 0.758062
v -5.206203 5.203356 0.554328
v -5.759089 -9.187805 0.682238
v -5.309908 5.205709 0.498882
v -5.883395 -9.184984 0.580195
v -5.400806 5.207772 0.424264
v -5.985411 -9.182669 0.455856
v -5.475405 5.209465 0.333342
v -6.061216 -9.180948 0.313999
v -5.530836 5.210723 0.229610
v -6.107896 -9.179890 0.160075
v -5.564971 5.211498 0.117054
v -6.123658 -9.179531 -0.000001
v -5.576497 5.211759 -0.000001
v -6.107896 -9.179890 -0.160076
v -5.564970 5.211498 -0.117055
v -6.061215 -9.180948 -0.314000
v -5.530836 5.210723 -0.229611
v -5.985410 -9.182669 -0.455858
v -5.475404 5.209465 -0.333343
v -5.883394 -9.184984 -0.580196
v -5.400805 5.207772 -0.424265
v -5.759087 -9.187805 -0.682238
v -5.309907 5.205709 -0.498882
v -5.617266 -9.191023 -0.758062
v -5.206201 5.203356 -0.554328
v -5.463382 -9.194515 -0.804755
v -5.093674 5.200802 -0.588471
vn 0.0983 0.0130 -0.9951
vn 0.2905 0.0086 -0.9568
vn 0.4716 0.0045 -0.8818
vn 0.6345 0.0008 -0.7729
vn 0.7731 -0.0023 -0.6343
vn 0.8819 -0.0048 -0.4713
vn 0.9569 -0.0065 -0.2903
vn 0.9952 -0.0073 -0.0980
vn 0.9952 -0.0073 0.0980
vn 0.9569 -0.0065 0.2903
vn 0.8819 -0.0048 0.4713
vn 0.7731 -0.0023 0.6343
vn 0.6345 0.0008 0.7729
vn 0.4716 0.0045 0.8818
vn 0.2905 0.0086 0.9568
vn 0.0983 0.0130 0.9951
vn -0.0976 0.0175 0.9951
vn -0.2898 0.0218 0.9568
vn -0.4709 0.0259 0.8818
vn -0.6338 0.0296 0.7729
vn -0.7724 0.0328 0.6343
vn -0.8812 0.0352 0.4713
vn -0.9562 0.0369 0.2903
vn -0.9945 0.0378 0.0980
vn -0.9945 0.0378 -0.0980
vn -0.9562 0.0369 -0.2903
vn -0.8812 0.0352 -0.4713
vn -0.7724 0.0328 -0.6343
vn -0.6338 0.0296 -0.7729
vn -0.4709 0.0259 -0.8818
vn 0.0227 0.9997 -0.0000
vn -0.2898 0.0218 -0.9568
vn -0.0976 0.0175 -0.9951
vn -0.0227 -0.9997 -0.0000
s off
f 241//169 242//169 244//169 243//169
f 243//170 244//170 246//170 245//170
f 245//171 246//171 248//171 247//171
f 247//172 248//172 250//172 249//172
f 249//173 250//173 252//173 251//173
f 251//174 252//174 254//174 253//174
f 253//175 254//175 256//175 255//175
f 255//176 256//176 258//176 257//176
f 257//177 258//177 260//177 259//177
f 259//178 260//178 262//178 261//178
f 261//179 262//179 264//179 263//179
f 263//180 264//180 266//180 265//180
f 265//181 266//181 268//181 267//181
f 267//182 268//182 270//182 269//182
f 269//183 270//183 272//183 271//183
f 271//184 272//184 274//184 273//184
f 273//185 274//185 276//185 275//185
f 275//186 276//186 278//186 277//186
f 277//187 278//187 280//187 279//187
f 279//188 280//188 282//188 281//188
f 281//189 282//189 284//189 283//189
f 283//190 284//190 286//190 285//190
f 285//191 286//191 288//191 287//191
f 287//192 288//192 290//192 289//192
f 289//193 290//193 292//193 291//193
f 291//194 292//194 294//194 293//194
f 293//195 294//195 296//195 295//195
f 295//196 296//196 298//196 297//196
f 297//197 298//197 300//197 299//197
f 299//198 300//198 302//198 301//198
f 244//199 242//199 304//199 302//199 300//199 298//199 296//199 294//199 292//199 290//199 288//199 286//199 284//199 282//199 280//199 278//199 276//199 274//199 272//199 270//199 268//199 266//199 264//199 262//199 260//199 258//199 256//199 254//199 252//199 250//199 248//199 246//199
f 301//200 302//200 304//200 303//200
f 303//201 304//201 242//201 241//201
f 241//202 243//202 245//202 247//202 249//202 251//202 253//202 255//202 257//202 259//202 261//202 263//202 265//202 267//202 269//202 271//202 273//202 275//202 277//202 279//202 281//202 283//202 285//202 287//202 289//202 291//202 293//202 295//202 297//202 299//202 301//202 303//202
